<svg width="28" height="28" viewBox="0 0 28 28" fill="none" xmlns="http://www.w3.org/2000/svg">
<path d="M22.1667 7H5.83333C4.54467 7 3.5 8.04467 3.5 9.33333V18.6667C3.5 19.9553 4.54467 21 5.83333 21H22.1667C23.4553 21 24.5 19.9553 24.5 18.6667V9.33333C24.5 8.04467 23.4553 7 22.1667 7Z" stroke="white" stroke-opacity="0.5" stroke-width="1.2"/>
<path d="M5.83333 10.5H9.33333M18.6667 17.5H22.1667" stroke="white" stroke-opacity="0.5" stroke-width="1.2" stroke-linecap="round"/>
<path d="M14 16.3332C15.2887 16.3332 16.3333 15.2885 16.3333 13.9998C16.3333 12.7112 15.2887 11.6665 14 11.6665C12.7113 11.6665 11.6667 12.7112 11.6667 13.9998C11.6667 15.2885 12.7113 16.3332 14 16.3332Z" stroke="white" stroke-opacity="0.5" stroke-width="1.2"/>
</svg>
