<svg width="34" height="34" viewBox="0 0 34 34" fill="none" xmlns="http://www.w3.org/2000/svg">
<g clip-path="url(#clip0_28_80)">
<rect width="34" height="34" rx="17" fill="#707CBE"/>
<rect x="34.0746" y="1.02393" width="48.2182" height="4.78297" transform="rotate(127 34.0746 1.02393)" fill="white" fill-opacity="0.13"/>
<g clip-path="url(#clip1_28_80)">
<path d="M22.0057 25.0304C21.073 25.0304 20.2821 24.7058 19.6328 24.0565C18.9835 23.4061 18.6588 22.6151 18.6588 21.6836C18.6588 20.752 18.9835 19.9613 19.6328 19.3115C20.2821 18.6616 21.0728 18.3367 22.0049 18.3367C22.9375 18.3367 23.7285 18.6616 24.3778 19.3115C25.0276 19.9608 25.3525 20.7515 25.3525 21.6836C25.3525 22.6157 25.0276 23.4066 24.3778 24.0565C23.7279 24.7063 22.9372 25.031 22.0057 25.0304ZM23.3905 23.526L23.8473 23.0692L22.327 21.548V19.2705H21.6836V21.8191L23.3905 23.526ZM12.1576 24.1937C11.7838 24.1937 11.465 24.0621 11.2012 23.7988C10.9379 23.5355 10.8063 23.2167 10.8063 22.8424V12.1576C10.8063 11.7838 10.9379 11.4651 11.2012 11.2012C11.4645 10.9379 11.7836 10.8063 12.1584 10.8063H16.0374C16.1155 10.4794 16.2893 10.2047 16.5587 9.98212C16.8281 9.75899 17.1419 9.64743 17.5 9.64743C17.8648 9.64743 18.1811 9.75899 18.4488 9.98212C18.7166 10.2041 18.8895 10.4788 18.9676 10.8063H22.8416C23.2164 10.8063 23.5355 10.9379 23.7988 11.2012C24.0621 11.4645 24.1937 11.7836 24.1937 12.1584V17.1946C24.0498 17.1204 23.9137 17.0554 23.7854 16.9996C23.6571 16.9439 23.5143 16.8939 23.357 16.8499V12.1576C23.357 12.0293 23.3034 11.9113 23.1963 11.8036C23.0892 11.696 22.971 11.6424 22.8416 11.643H20.8468V13.5089H14.1531V11.643H12.1584C12.0296 11.643 11.9113 11.6965 11.8036 11.8036C11.696 11.9107 11.6424 12.029 11.643 12.1584V22.8424C11.643 22.9925 11.6912 23.1157 11.7877 23.2122C11.8842 23.3087 12.0078 23.357 12.1584 23.357H17.2841C17.3287 23.5132 17.3815 23.6585 17.4423 23.7929C17.5036 23.9268 17.5817 24.0604 17.6765 24.1937H12.1576ZM17.5 11.8354C17.6941 11.8354 17.8553 11.7716 17.9836 11.6438C18.1119 11.5155 18.176 11.3543 18.176 11.1602C18.176 10.9661 18.1119 10.8049 17.9836 10.6766C17.8553 10.5483 17.6941 10.4841 17.5 10.4841C17.3059 10.4841 17.1447 10.5483 17.0164 10.6766C16.8881 10.8049 16.8239 10.9661 16.8239 11.1602C16.8239 11.3543 16.8881 11.5155 17.0164 11.6438C17.1447 11.7721 17.3059 11.8354 17.5 11.8354Z" fill="white"/>
</g>
</g>
<defs>
<clipPath id="clip0_28_80">
<rect width="34" height="34" rx="17" fill="white"/>
</clipPath>
<clipPath id="clip1_28_80">
<rect width="15" height="15" fill="white" transform="translate(10 10)"/>
</clipPath>
</defs>
</svg>
