<svg width="26" height="26" viewBox="0 0 26 26" fill="none" xmlns="http://www.w3.org/2000/svg">
<path d="M20.9278 14.625H16.7299C16.1734 14.6244 15.6395 14.8445 15.2451 15.2371C14.8507 15.6296 14.6281 16.1626 14.6261 16.719V20.917C14.6258 21.1933 14.68 21.467 14.7856 21.7224C14.8913 21.9778 15.0462 22.2098 15.2416 22.4052C15.4371 22.6006 15.6691 22.7556 15.9245 22.8612C16.1798 22.9669 16.4535 23.0211 16.7299 23.0208H20.9278C21.4841 23.0185 22.0168 22.7958 22.4091 22.4014C22.8014 22.0071 23.0214 21.4732 23.0208 20.917V16.719C23.0211 16.4441 22.9672 16.1718 22.8621 15.9178C22.757 15.6637 22.6028 15.4328 22.4084 15.2384C22.214 15.044 21.9832 14.8899 21.7291 14.7848C21.4751 14.6797 21.2028 14.6258 20.9278 14.626M9.27007 14.625H5.07216C4.51597 14.6281 3.98363 14.8513 3.59145 15.2457C3.19928 15.6401 2.97915 16.1737 2.97916 16.7299V20.9278C2.97887 21.2027 3.03281 21.475 3.1379 21.7291C3.24298 21.9832 3.39714 22.214 3.59155 22.4084C3.78596 22.6028 4.0168 22.757 4.27086 22.8621C4.52493 22.9671 4.79722 23.0211 5.07216 23.0208H9.27007C9.82635 23.0214 10.3602 22.8014 10.7545 22.4091C11.1489 22.0167 11.3716 21.4841 11.3739 20.9278V16.7299C11.3742 16.4535 11.32 16.1798 11.2143 15.9244C11.1087 15.6691 10.9538 15.437 10.7583 15.2416C10.5629 15.0462 10.3309 14.8912 10.0755 14.7856C9.82014 14.68 9.54643 14.6258 9.27007 14.626M9.27007 2.97913H5.07216C4.79722 2.97884 4.52493 3.03278 4.27086 3.13787C4.0168 3.24295 3.78596 3.39711 3.59155 3.59152C3.39714 3.78593 3.24298 4.01677 3.1379 4.27083C3.03281 4.5249 2.97887 4.79719 2.97916 5.07213V9.27004C2.97858 9.82632 3.19856 10.3601 3.59089 10.7545C3.98322 11.1488 4.51589 11.3716 5.07216 11.3739H9.27007C9.54643 11.3742 9.82014 11.3199 10.0755 11.2143C10.3309 11.1087 10.5629 10.9537 10.7583 10.7583C10.9538 10.5629 11.1087 10.3309 11.2143 10.0755C11.32 9.82011 11.3742 9.5464 11.3739 9.27004V5.07213C11.3716 4.51586 11.1489 3.98319 10.7545 3.59086C10.3602 3.19853 9.82635 2.97855 9.27007 2.97913ZM20.9278 2.97913H16.7299C16.1736 2.97855 15.6398 3.19853 15.2455 3.59086C14.8511 3.98319 14.6284 4.51586 14.6261 5.07213V9.27004C14.6264 9.82793 14.8481 10.3629 15.2426 10.7574C15.6371 11.1518 16.172 11.3736 16.7299 11.3739H20.9278C21.4841 11.3716 22.0168 11.1488 22.4091 10.7545C22.8014 10.3601 23.0214 9.82632 23.0208 9.27004V5.07213C23.0211 4.79719 22.9672 4.5249 22.8621 4.27083C22.757 4.01677 22.6028 3.78593 22.4084 3.59152C22.214 3.39711 21.9832 3.24295 21.7291 3.13787C21.4751 3.03278 21.2028 2.97884 20.9278 2.97913Z" stroke="white" stroke-opacity="0.5" stroke-width="1.2" stroke-linecap="round" stroke-linejoin="round"/>
</svg>
