<svg width="27" height="27" viewBox="0 0 27 27" fill="none" xmlns="http://www.w3.org/2000/svg">
<path d="M2.25 14.6475V13.5225H4.39875C4.47375 11.04 5.32762 8.94975 6.96037 7.25175C8.59312 5.55375 10.5855 4.63875 12.9375 4.50675V3.375H14.0625V4.50675C16.4152 4.6395 18.408 5.5545 20.0407 7.25175C21.6735 8.949 22.5274 11.0389 22.6024 13.5214H24.75V14.6464L2.25 14.6475ZM5.53612 13.5225H21.465C21.39 11.259 20.5837 9.37313 19.0462 7.86488C17.5102 6.35738 15.6619 5.60362 13.5011 5.60362C11.3404 5.60362 9.49125 6.357 7.95375 7.86375C6.41625 9.3705 5.61037 11.2568 5.53612 13.5225ZM17.4049 14.6475H8.74125V21.375H15.2449C15.6386 21.375 16.0185 21.3094 16.3845 21.1781C16.7505 21.0469 17.0831 20.85 17.3824 20.5875L22.0511 16.7344C21.8434 16.5124 21.6135 16.3459 21.3615 16.2349C21.1095 16.1239 20.844 16.0496 20.565 16.0121C20.2605 15.9844 19.962 16.0117 19.6695 16.0942C19.377 16.1767 19.0995 16.3211 18.837 16.5274L16.8379 18.1294H11.8575V17.0044H16.4396L17.8706 15.8411C17.9794 15.7556 18.0536 15.6517 18.0934 15.5295C18.1324 15.4072 18.1305 15.2752 18.0877 15.1335C18.0442 14.9752 17.9595 14.8545 17.8335 14.7713C17.7075 14.6888 17.565 14.6475 17.406 14.6475M7.61625 14.625H5.19187C4.99012 14.625 4.82437 14.6899 4.69462 14.8196C4.56487 14.9494 4.5 15.1155 4.5 15.318V21.8081C4.5 22.0099 4.56487 22.1756 4.69462 22.3054C4.82437 22.4351 4.99012 22.5 5.19187 22.5H6.92325C7.125 22.5 7.29075 22.4351 7.4205 22.3054C7.55025 22.1756 7.61512 22.0099 7.61512 21.8081L7.61625 14.625ZM6.92437 23.6475H5.19187C4.67437 23.6475 4.242 23.4739 3.89475 23.1266C3.5475 22.7794 3.37425 22.347 3.375 21.8295V15.3382C3.375 14.8207 3.54862 14.3888 3.89587 14.0423C4.24312 13.6958 4.67512 13.5221 5.19187 13.5214H17.3835C18.4867 13.5214 19.5304 13.7464 20.5144 14.1964C21.4984 14.6464 22.3462 15.2947 23.058 16.1415L23.6441 16.8615L18.1091 21.4875C17.7034 21.8175 17.2522 22.0725 16.7557 22.2525C16.26 22.4325 15.756 22.5225 15.2437 22.5225H8.604C8.46975 22.86 8.25225 23.1315 7.9515 23.337C7.65 23.5432 7.30725 23.6464 6.92325 23.6464" fill="white" fill-opacity="0.5"/>
</svg>
