<svg width="27" height="27" viewBox="0 0 27 27" fill="none" xmlns="http://www.w3.org/2000/svg">
<path d="M10.125 12.375C11.3676 12.375 12.375 11.3676 12.375 10.125C12.375 8.88236 11.3676 7.875 10.125 7.875C8.88236 7.875 7.875 8.88236 7.875 10.125C7.875 11.3676 8.88236 12.375 10.125 12.375Z" stroke="white" stroke-opacity="0.5" stroke-width="1.1"/>
<path d="M14.625 16.875C14.625 18.1181 14.625 19.125 10.125 19.125C5.625 19.125 5.625 18.1181 5.625 16.875C5.625 15.6319 7.63875 14.625 10.125 14.625C12.6113 14.625 14.625 15.6319 14.625 16.875Z" stroke="white" stroke-opacity="0.5" stroke-width="1.1"/>
<path d="M24.75 13.5C24.75 17.7424 24.75 19.8641 23.4315 21.1815C22.113 22.4989 19.9924 22.5 15.75 22.5H11.25C7.00763 22.5 4.88587 22.5 3.5685 21.1815C2.25112 19.863 2.25 17.7424 2.25 13.5C2.25 9.25763 2.25 7.13587 3.5685 5.8185C4.887 4.50112 7.00763 4.5 11.25 4.5H15.75C19.9924 4.5 22.1141 4.5 23.4315 5.8185C23.9602 6.34725 24.2764 7.00425 24.4665 7.875M21.375 13.5H16.875M21.375 10.125H15.75M21.375 16.875H18" stroke="white" stroke-opacity="0.5" stroke-width="1.1" stroke-linecap="round"/>
</svg>
