<svg width="27" height="27" viewBox="0 0 27 27" fill="none" xmlns="http://www.w3.org/2000/svg">
<path d="M15.75 12.375C14.8549 12.375 13.9964 12.0194 13.3635 11.3865C12.7306 10.7536 12.375 9.89511 12.375 9V4.5H7.875C7.27826 4.5 6.70597 4.73705 6.28401 5.15901C5.86205 5.58097 5.625 6.15326 5.625 6.75V21.375C5.625 21.9717 5.86205 22.544 6.28401 22.966C6.70597 23.3879 7.27826 23.625 7.875 23.625H18C18.5967 23.625 19.169 23.3879 19.591 22.966C20.0129 22.544 20.25 21.9717 20.25 21.375V12.375H15.75ZM13.5 9C13.5 9.59674 13.7371 10.169 14.159 10.591C14.581 11.0129 15.1533 11.25 15.75 11.25H19.7888L13.5 4.96125V9ZM7.875 3.375H13.5L21.375 11.25V21.375C21.375 22.2701 21.0194 23.1286 20.3865 23.7615C19.7536 24.3944 18.8951 24.75 18 24.75H7.875C6.97989 24.75 6.12145 24.3944 5.48851 23.7615C4.85558 23.1286 4.5 22.2701 4.5 21.375V6.75C4.5 5.85489 4.85558 4.99645 5.48851 4.36351C6.12145 3.73058 6.97989 3.375 7.875 3.375Z" fill="white" fill-opacity="0.5"/>
</svg>
