<svg width="28" height="28" viewBox="0 0 28 28" fill="none" xmlns="http://www.w3.org/2000/svg">
<path d="M10.0683 23.3337C8.56877 23.3337 7.2936 22.8083 6.24282 21.7575C5.19205 20.7067 4.66666 19.4312 4.66666 17.9308C4.66666 17.2969 4.77438 16.6825 4.98982 16.0875C5.20527 15.4925 5.51638 14.95 5.92316 14.46L10.0205 9.54016L7.59382 4.66699H20.4062L17.9795 9.54016L22.0768 14.46C22.4836 14.9492 22.7947 15.4913 23.0102 16.0863C23.2256 16.6821 23.3333 17.2969 23.3333 17.9308C23.3333 19.4312 22.8068 20.7067 21.7537 21.7575C20.7005 22.8083 19.4265 23.3337 17.9317 23.3337H10.0683ZM14 18.0603C13.4781 18.0603 13.0336 17.8772 12.6665 17.5108C12.2994 17.1437 12.1158 16.6992 12.1158 16.1773C12.1158 15.6547 12.2994 15.2098 12.6665 14.8427C13.0336 14.4755 13.4781 14.292 14 14.292C14.5219 14.292 14.9664 14.4755 15.3335 14.8427C15.7006 15.2098 15.8842 15.6547 15.8842 16.1773C15.8842 16.7 15.7006 17.1445 15.3335 17.5108C14.9664 17.8772 14.5219 18.0603 14 18.0603ZM11.095 9.04199H16.9283L18.5208 5.83366H9.47916L11.095 9.04199ZM10.0683 22.167H17.9317C19.1139 22.167 20.1153 21.7532 20.9358 20.9257C21.7564 20.0981 22.1667 19.0998 22.1667 17.9308C22.1667 17.4346 22.0838 16.9524 21.9182 16.4842C21.7525 16.0159 21.5094 15.5928 21.189 15.2148L17.0123 10.2087H11.0157L6.83432 15.2078C6.51232 15.5874 6.26499 16.012 6.09232 16.4818C5.91966 16.9516 5.83332 17.4346 5.83332 17.9308C5.83332 19.099 6.24749 20.0973 7.07582 20.9257C7.90338 21.7532 8.90088 22.167 10.0683 22.167Z" fill="white" fill-opacity="0.5"/>
</svg>
