<svg width="27" height="27" viewBox="0 0 27 27" fill="none" xmlns="http://www.w3.org/2000/svg">
<path d="M18 11.25C18 12.4435 17.5259 13.5881 16.682 14.432C15.8381 15.2759 14.6935 15.75 13.5 15.75C12.3065 15.75 11.1619 15.2759 10.318 14.432C9.47411 13.5881 9 12.4435 9 11.25C9 10.0565 9.47411 8.91193 10.318 8.06802C11.1619 7.22411 12.3065 6.75 13.5 6.75C14.6935 6.75 15.8381 7.22411 16.682 8.06802C17.5259 8.91193 18 10.0565 18 11.25Z" fill="white" fill-opacity="0.5"/>
<path fill-rule="evenodd" clip-rule="evenodd" d="M13.041 24.741C7.04081 24.5002 2.25 19.5592 2.25 13.5C2.25 7.28662 7.28662 2.25 13.5 2.25C19.7134 2.25 24.75 7.28662 24.75 13.5C24.75 19.7134 19.7134 24.75 13.5 24.75H13.3459C13.2439 24.75 13.1422 24.747 13.041 24.741ZM6.28087 20.5987C6.19676 20.3572 6.16813 20.0998 6.19711 19.8457C6.22609 19.5915 6.31193 19.3472 6.44826 19.1308C6.5846 18.9144 6.76792 18.7314 6.98463 18.5956C7.20134 18.4597 7.44587 18.3744 7.70006 18.3459C12.0853 17.8605 14.9417 17.9044 19.3056 18.3561C19.5601 18.3826 19.8052 18.4668 20.0223 18.6024C20.2393 18.7379 20.4226 18.9212 20.5581 19.1383C20.6936 19.3554 20.7778 19.6006 20.8042 19.8551C20.8307 20.1097 20.7987 20.3669 20.7107 20.6072C22.5811 18.7149 23.6285 16.1606 23.625 13.5C23.625 7.90819 19.0918 3.375 13.5 3.375C7.90819 3.375 3.375 7.90819 3.375 13.5C3.375 16.2652 4.48369 18.7717 6.28087 20.5987Z" fill="white" fill-opacity="0.5"/>
</svg>
