<svg width="25" height="25" viewBox="0 0 25 25" fill="none" xmlns="http://www.w3.org/2000/svg">
<path d="M3.73956 18.9344C3.5837 18.8266 3.43796 18.705 3.30415 18.5708C2.08331 17.351 2.08331 15.3865 2.08331 11.4583C2.08331 7.53021 2.08331 5.56562 3.30415 4.34583C4.52498 3.12604 6.48852 3.125 10.4166 3.125H14.5833C18.5114 3.125 20.476 3.125 21.6958 4.34583C22.9156 5.56667 22.9166 7.53021 22.9166 11.4583C22.9166 15.3865 22.9166 17.351 21.6958 18.5708C21.5611 18.7062 21.416 18.8274 21.2604 18.9344" stroke="white" stroke-opacity="0.5" stroke-width="1.5" stroke-linecap="round"/>
<path d="M9.04793 17.6312C8.14793 18.1801 5.78647 19.2999 7.22501 20.7009C7.92709 21.3853 8.70834 21.8749 9.69376 21.8749H15.3073C16.2906 21.8749 17.0729 21.3853 17.7761 20.7009C19.2136 19.2999 16.8521 18.1801 15.9521 17.6312C14.9113 16.9998 13.7173 16.666 12.5 16.666C11.2827 16.666 10.0887 16.9998 9.04793 17.6312Z" stroke="white" stroke-opacity="0.5" stroke-width="1.5" stroke-linecap="round" stroke-linejoin="round"/>
<path d="M15.1041 11.4587C15.1041 12.1493 14.8298 12.8117 14.3414 13.3001C13.853 13.7885 13.1906 14.0628 12.5 14.0628C11.8093 14.0628 11.1469 13.7885 10.6586 13.3001C10.1702 12.8117 9.89581 12.1493 9.89581 11.4587C9.89581 10.768 10.1702 10.1056 10.6586 9.61724C11.1469 9.12886 11.8093 8.85449 12.5 8.85449C13.1906 8.85449 13.853 9.12886 14.3414 9.61724C14.8298 10.1056 15.1041 10.768 15.1041 11.4587Z" stroke="white" stroke-opacity="0.5" stroke-width="1.5"/>
</svg>
