<svg width="30" height="30" viewBox="0 0 30 30" fill="none" xmlns="http://www.w3.org/2000/svg">
<path d="M23.75 7.5H6.25C4.86929 7.5 3.75 8.61929 3.75 10V20C3.75 21.3807 4.86929 22.5 6.25 22.5H23.75C25.1307 22.5 26.25 21.3807 26.25 20V10C26.25 8.61929 25.1307 7.5 23.75 7.5Z" stroke="white" stroke-opacity="0.5" stroke-width="1.5"/>
<path d="M6.25 11.25H10M20 18.75H23.75" stroke="white" stroke-opacity="0.5" stroke-width="1.2" stroke-linecap="round"/>
<path d="M15 17.5C16.3807 17.5 17.5 16.3807 17.5 15C17.5 13.6193 16.3807 12.5 15 12.5C13.6193 12.5 12.5 13.6193 12.5 15C12.5 16.3807 13.6193 17.5 15 17.5Z" stroke="white" stroke-opacity="0.5" stroke-width="1.2"/>
</svg>
