<svg width="25" height="25" viewBox="0 0 25 25" fill="none" xmlns="http://www.w3.org/2000/svg">
<path d="M10.4167 11.4583C12.7179 11.4583 14.5833 9.59285 14.5833 7.29167C14.5833 4.99048 12.7179 3.125 10.4167 3.125C8.11548 3.125 6.25 4.99048 6.25 7.29167C6.25 9.59285 8.11548 11.4583 10.4167 11.4583Z" stroke="white" stroke-opacity="0.5" stroke-width="1.6" stroke-linecap="round" stroke-linejoin="round"/>
<path d="M10.7292 15.625H7.29167C6.1866 15.625 5.12679 16.064 4.34539 16.8454C3.56399 17.6268 3.125 18.6866 3.125 19.7917V21.875" stroke="white" stroke-opacity="0.5" stroke-width="1.6" stroke-linecap="round" stroke-linejoin="round"/>
<path d="M17.7083 20.8335C19.4342 20.8335 20.8333 19.4344 20.8333 17.7085C20.8333 15.9826 19.4342 14.5835 17.7083 14.5835C15.9824 14.5835 14.5833 15.9826 14.5833 17.7085C14.5833 19.4344 15.9824 20.8335 17.7083 20.8335Z" stroke="white" stroke-opacity="0.5" stroke-width="1.6" stroke-linecap="round" stroke-linejoin="round"/>
<path d="M21.875 21.8752L19.8958 19.896" stroke="white" stroke-opacity="0.5" stroke-width="1.6" stroke-linecap="round" stroke-linejoin="round"/>
</svg>
