<svg width="40" height="40" viewBox="0 0 40 40" fill="none" xmlns="http://www.w3.org/2000/svg">
<path d="M28.8646 27.6355H26.8508C26.7133 27.6355 26.5844 27.6956 26.4984 27.8016C26.2979 28.0451 26.0831 28.28 25.8568 28.5034C24.9312 29.4299 23.8349 30.1683 22.6284 30.6776C21.3784 31.2056 20.035 31.4764 18.6781 31.474C17.306 31.474 15.9768 31.2047 14.7279 30.6776C13.5214 30.1683 12.425 29.4299 11.4995 28.5034C10.5723 27.5801 9.83293 26.4856 9.3224 25.2808C8.79245 24.0318 8.52605 22.7055 8.52605 21.3334C8.52605 19.9612 8.79532 18.6349 9.3224 17.386C9.8323 16.18 10.5656 15.0943 11.4995 14.1633C12.4333 13.2323 13.519 12.499 14.7279 11.9891C15.9768 11.462 17.306 11.1928 18.6781 11.1928C20.0503 11.1928 21.3794 11.4592 22.6284 11.9891C23.8372 12.499 24.9229 13.2323 25.8568 14.1633C26.0831 14.3896 26.2951 14.6245 26.4984 14.8651C26.5844 14.9711 26.7162 15.0313 26.8508 15.0313H28.8646C29.0451 15.0313 29.1568 14.8308 29.0565 14.6789C26.8594 11.2644 23.0151 9.00421 18.6466 9.01567C11.7831 9.03286 6.28021 14.6045 6.34896 21.4594C6.41771 28.2055 11.912 33.6511 18.6781 33.6511C23.0352 33.6511 26.8622 31.3938 29.0565 27.9878C29.1539 27.836 29.0451 27.6355 28.8646 27.6355ZM31.4112 21.1529L27.3464 17.9446C27.1945 17.8243 26.974 17.9331 26.974 18.125V20.3021H17.9792C17.8531 20.3021 17.75 20.4053 17.75 20.5313V22.1355C17.75 22.2615 17.8531 22.3646 17.9792 22.3646H26.974V24.5417C26.974 24.7336 27.1974 24.8425 27.3464 24.7222L31.4112 21.5138C31.4386 21.4924 31.4607 21.465 31.476 21.4338C31.4912 21.4025 31.4991 21.3682 31.4991 21.3334C31.4991 21.2986 31.4912 21.2643 31.476 21.233C31.4607 21.2017 31.4386 21.1743 31.4112 21.1529Z" fill="white" fill-opacity="0.61"/>
</svg>
