<svg width="20" height="20" viewBox="0 0 20 20" fill="none" xmlns="http://www.w3.org/2000/svg">
<g clip-path="url(#clip0_10_90)">
<path d="M18.0611 15.4611C17.5254 14.9835 17.0564 14.436 16.6667 13.8333C16.2408 13.0016 15.9858 12.093 15.9167 11.1611V8.41667C15.9204 6.95312 15.3895 5.5386 14.4238 4.43888C13.458 3.33915 12.124 2.62993 10.6722 2.44445V1.72778C10.6722 1.53108 10.5941 1.34243 10.455 1.20334C10.3159 1.06425 10.1273 0.986115 9.93057 0.986115C9.73387 0.986115 9.54522 1.06425 9.40613 1.20334C9.26704 1.34243 9.1889 1.53108 9.1889 1.72778V2.45556C7.75016 2.65441 6.43222 3.36792 5.4792 4.46395C4.52617 5.55998 4.00264 6.96425 4.00557 8.41667V11.1611C3.93643 12.093 3.68142 13.0016 3.25557 13.8333C2.87273 14.4346 2.41123 14.9821 1.88335 15.4611C1.82409 15.5132 1.77659 15.5773 1.74402 15.6491C1.71145 15.7209 1.69456 15.7989 1.69446 15.8778V16.6333C1.69446 16.7807 1.75299 16.922 1.85718 17.0262C1.96136 17.1304 2.10267 17.1889 2.25001 17.1889H17.6945C17.8418 17.1889 17.9831 17.1304 18.0873 17.0262C18.1915 16.922 18.25 16.7807 18.25 16.6333V15.8778C18.2499 15.7989 18.233 15.7209 18.2005 15.6491C18.1679 15.5773 18.1204 15.5132 18.0611 15.4611ZM2.85001 16.0778C3.36679 15.5783 3.82188 15.0188 4.20557 14.4111C4.74212 13.4066 5.05484 12.2979 5.12224 11.1611V8.41667C5.1002 7.76558 5.20942 7.11671 5.44337 6.50871C5.67733 5.9007 6.03124 5.34599 6.48404 4.87761C6.93684 4.40924 7.47926 4.03676 8.079 3.78238C8.67875 3.52799 9.32355 3.3969 9.97501 3.3969C10.6265 3.3969 11.2713 3.52799 11.871 3.78238C12.4708 4.03676 13.0132 4.40924 13.466 4.87761C13.9188 5.34599 14.2727 5.9007 14.5067 6.50871C14.7406 7.11671 14.8498 7.76558 14.8278 8.41667V11.1611C14.8952 12.2979 15.2079 13.4066 15.7445 14.4111C16.1281 15.0188 16.5832 15.5783 17.1 16.0778H2.85001Z" fill="#C7C7C7"/>
<path d="M10 19.0444C10.35 19.0364 10.6858 18.9048 10.9481 18.673C11.2104 18.4412 11.3823 18.1241 11.4333 17.7778H8.51111C8.56359 18.1335 8.74351 18.4581 9.01739 18.6911C9.29126 18.9241 9.64046 19.0496 10 19.0444Z" fill="#C9E6FF"/>
<circle cx="14.4" cy="3.2" r="2.4" fill="#1B70BB"/>
</g>
<defs>
<clipPath id="clip0_10_90">
<rect width="20" height="20" fill="white"/>
</clipPath>
</defs>
</svg>
