<svg width="34" height="34" viewBox="0 0 34 34" fill="none" xmlns="http://www.w3.org/2000/svg">
<g clip-path="url(#clip0_28_74)">
<rect width="34" height="34" rx="17" fill="#4B97D9"/>
<rect x="34.0746" y="1.02393" width="48.2182" height="4.78297" transform="rotate(127 34.0746 1.02393)" fill="white" fill-opacity="0.13"/>
<path d="M11.0243 17C11.0243 17.099 11.0636 17.194 11.1337 17.264C11.2037 17.3341 11.2987 17.3734 11.3977 17.3734H17.9659L15.9886 19.3499C15.9539 19.3846 15.9263 19.4258 15.9075 19.4711C15.8887 19.5164 15.879 19.565 15.879 19.6141C15.8789 19.7132 15.9182 19.8083 15.9882 19.8784C16.0583 19.9485 16.1533 19.988 16.2524 19.988C16.3515 19.9881 16.4466 19.9488 16.5167 19.8788L19.1311 17.2644C19.2011 17.1943 19.2405 17.0994 19.2405 17.0003C19.2405 16.9013 19.2011 16.8063 19.1311 16.7363L16.5167 14.1219C16.4463 14.0538 16.3519 14.0162 16.254 14.0171C16.1561 14.0179 16.0624 14.0572 15.9932 14.1264C15.9239 14.1957 15.8846 14.2894 15.8838 14.3873C15.8829 14.4852 15.9206 14.5795 15.9886 14.65L17.9659 16.6265H11.3977C11.2987 16.6265 11.2037 16.6658 11.1337 16.7359C11.0636 16.8059 11.0243 16.9009 11.0243 17ZM21.1084 9.53026H12.8917C12.3964 9.53026 11.9214 9.727 11.5712 10.0772C11.221 10.4274 11.0243 10.9024 11.0243 11.3977V14.3856C11.0243 14.4846 11.0636 14.5796 11.1337 14.6497C11.2037 14.7197 11.2987 14.759 11.3977 14.759C11.4968 14.759 11.5918 14.7197 11.6618 14.6497C11.7319 14.5796 11.7712 14.4846 11.7712 14.3856V11.3977C11.7712 11.1005 11.8893 10.8155 12.0994 10.6054C12.3095 10.3953 12.5945 10.2772 12.8917 10.2772H21.1084C21.4055 10.2772 21.6905 10.3953 21.9006 10.6054C22.1108 10.8155 22.2288 11.1005 22.2288 11.3977V22.6022C22.2288 22.8994 22.1108 23.1844 21.9006 23.3945C21.6905 23.6046 21.4055 23.7227 21.1084 23.7227H12.8917C12.5945 23.7227 12.3095 23.6046 12.0994 23.3945C11.8893 23.1844 11.7712 22.8994 11.7712 22.6022V19.6143C11.7712 19.5153 11.7319 19.4203 11.6618 19.3503C11.5918 19.2802 11.4968 19.2409 11.3977 19.2409C11.2987 19.2409 11.2037 19.2802 11.1337 19.3503C11.0636 19.4203 11.0243 19.5153 11.0243 19.6143V22.6022C11.0243 23.0975 11.221 23.5725 11.5712 23.9227C11.9214 24.2729 12.3964 24.4697 12.8917 24.4697H21.1084C21.6036 24.4697 22.0786 24.2729 22.4288 23.9227C22.779 23.5725 22.9758 23.0975 22.9758 22.6022V11.3977C22.9758 10.9024 22.779 10.4274 22.4288 10.0772C22.0786 9.727 21.6036 9.53026 21.1084 9.53026Z" fill="white"/>
</g>
<defs>
<clipPath id="clip0_28_74">
<rect width="34" height="34" rx="17" fill="white"/>
</clipPath>
</defs>
</svg>
