<svg width="17" height="16" viewBox="0 0 17 16" fill="none" xmlns="http://www.w3.org/2000/svg">
<path d="M1.375 6.3498C1.375 3.63148 1.375 2.27196 2.30283 1.42784C3.23067 0.583729 4.72296 0.583008 7.70833 0.583008H9.29167C12.277 0.583008 13.7701 0.583008 14.6972 1.42784C15.6242 2.27268 15.625 3.63148 15.625 6.3498V9.2332C15.625 11.9515 15.625 13.311 14.6972 14.1552C13.7693 14.9993 12.277 15 9.29167 15H7.70833C4.72296 15 3.22987 15 2.30283 14.1552C1.37579 13.3103 1.375 11.9515 1.375 9.2332V6.3498Z" stroke="white" stroke-opacity="0.6"/>
<path d="M5.33334 6.34961H11.6667M5.33334 9.23301H9.29168" stroke="white" stroke-opacity="0.6" stroke-linecap="round"/>
</svg>
