<svg width="27" height="27" viewBox="0 0 27 27" fill="none" xmlns="http://www.w3.org/2000/svg">
<path d="M9.54789 23.625H17.4521C18.1611 23.625 18.86 23.4575 19.4919 23.1361C20.1238 22.8147 20.6708 22.3486 21.0884 21.7757C21.506 21.2029 21.7824 20.5394 21.8949 19.8395C22.0075 19.1396 21.9531 18.4229 21.7361 17.748L19.8169 11.7788C19.4525 10.645 18.7376 9.65611 17.7753 8.95458C16.813 8.25304 15.6528 7.87504 14.4619 7.875H12.5381C11.3472 7.87504 10.1871 8.25304 9.22475 8.95458C8.26241 9.65611 7.54756 10.645 7.18314 11.7788L5.26389 17.748C5.04696 18.4229 4.99256 19.1396 5.10512 19.8395C5.21768 20.5394 5.49402 21.2029 5.91161 21.7757C6.32921 22.3486 6.87625 22.8147 7.50816 23.1361C8.14007 23.4575 8.83896 23.625 9.54789 23.625ZM16.875 3.375C16.125 6.375 15 7.875 13.5 7.875C12 7.875 10.875 6.375 10.125 3.375H16.875Z" stroke="white" stroke-opacity="0.6" stroke-width="1.2" stroke-linecap="round" stroke-linejoin="round"/>
<path d="M15.75 12.375H12.9375C12.4899 12.375 12.0607 12.5528 11.7443 12.8693C11.4278 13.1857 11.25 13.6149 11.25 14.0625C11.25 14.5101 11.4278 14.9393 11.7443 15.2557C12.0607 15.5722 12.4899 15.75 12.9375 15.75H14.0625C14.5101 15.75 14.9393 15.9278 15.2557 16.2443C15.5722 16.5607 15.75 16.9899 15.75 17.4375C15.75 17.8851 15.5722 18.3143 15.2557 18.6307C14.9393 18.9472 14.5101 19.125 14.0625 19.125H11.25M13.5 11.25V12.375M13.5 19.125V20.25" stroke="white" stroke-opacity="0.6" stroke-width="1.2" stroke-linecap="round" stroke-linejoin="round"/>
</svg>
