<svg width="20" height="20" viewBox="0 0 20 20" fill="none" xmlns="http://www.w3.org/2000/svg">
<path d="M3.1625 11.3428L3.74625 12.4928C3.34625 12.8865 3.125 13.3153 3.125 13.7503C3.125 15.3578 6.15875 16.8753 10 16.8753C13.8412 16.8753 16.875 15.3578 16.875 13.7503C16.875 13.3153 16.6525 12.8878 16.2538 12.494L16.8488 11.3528C17.655 12.0278 18.125 12.8453 18.125 13.7503C18.125 16.284 14.4425 18.1253 10 18.1253C5.5575 18.1253 1.875 16.284 1.875 13.7503C1.875 12.8403 2.35 12.0203 3.1625 11.3428Z" fill="white" fill-opacity="0.6"/>
<path d="M3.1625 7.59277L3.74625 8.74277C3.34625 9.13777 3.125 9.56652 3.125 10.0003C3.125 11.6078 6.15875 13.1253 10 13.1253C13.8412 13.1253 16.875 11.6078 16.875 10.0003C16.875 9.56527 16.6525 9.13777 16.2538 8.74402L16.8488 7.60277C17.655 8.27777 18.125 9.09527 18.125 10.0003C18.125 12.534 14.4425 14.3753 10 14.3753C5.5575 14.3753 1.875 12.534 1.875 10.0003C1.875 9.09027 2.35 8.27027 3.1625 7.59277Z" fill="white" fill-opacity="0.6"/>
<path d="M10 10.625C5.5575 10.625 1.875 8.78375 1.875 6.25C1.875 3.71625 5.5575 1.875 10 1.875C14.4425 1.875 18.125 3.71625 18.125 6.25C18.125 8.78375 14.4425 10.625 10 10.625ZM10 9.375C13.8412 9.375 16.875 7.8575 16.875 6.25C16.875 4.6425 13.8412 3.125 10 3.125C6.15875 3.125 3.125 4.6425 3.125 6.25C3.125 7.8575 6.15875 9.375 10 9.375Z" fill="white" fill-opacity="0.6"/>
</svg>
