<svg width="20" height="20" viewBox="0 0 20 20" fill="none" xmlns="http://www.w3.org/2000/svg">
<path d="M6.38 3.947C5.47 4.526 5 5.264 5 6C5 6.736 5.47 7.474 6.38 8.053C7.282 8.628 8.561 9 10 9C11.439 9 12.717 8.628 13.62 8.053C14.53 7.474 15 6.736 15 6C15 5.264 14.53 4.526 13.62 3.947C12.718 3.372 11.439 3 10 3C8.561 3 7.283 3.372 6.38 3.947ZM5.842 3.103C6.93 2.412 8.401 2 10 2C11.599 2 13.07 2.412 14.158 3.103C15.238 3.791 16 4.803 16 6C16 7.197 15.239 8.209 14.158 8.897C13.07 9.588 11.599 10 10 10C8.401 10 6.93 9.588 5.842 8.897C4.762 8.209 4 7.197 4 6C4 4.803 4.761 3.791 5.842 3.103ZM15.753 8.849C15.5032 9.10406 15.2311 9.33632 14.94 9.543C14.98 9.69433 15 9.84667 15 10C15 10.736 14.53 11.474 13.62 12.053C12.717 12.628 11.438 13 10 13C8.562 13 7.283 12.628 6.38 12.053C5.47 11.474 5 10.736 5 10C5 9.84667 5.02 9.69433 5.06 9.543C4.76889 9.33632 4.49681 9.10406 4.247 8.849C4.08403 9.21083 3.99984 9.60317 4 10C4 11.197 4.761 12.209 5.842 12.897C6.93 13.588 8.401 14 10 14C11.599 14 13.07 13.588 14.158 12.897C15.238 12.209 16 11.197 16 10C16 9.593 15.912 9.208 15.753 8.849ZM15.753 12.849C15.5103 13.0977 15.2393 13.329 14.94 13.543C14.98 13.6943 15 13.8467 15 14C15 14.736 14.53 15.474 13.62 16.053C12.717 16.628 11.438 17 10 17C8.562 17 7.283 16.628 6.38 16.053C5.47 15.474 5 14.736 5 14C5 13.8467 5.02 13.6943 5.06 13.543C4.76889 13.3363 4.49681 13.1041 4.247 12.849C4.08403 13.2108 3.99984 13.6032 4 14C4 15.197 4.761 16.209 5.842 16.897C6.93 17.589 8.401 18 10 18C11.599 18 13.07 17.588 14.158 16.897C15.238 16.209 16 15.197 16 14C16 13.593 15.912 13.208 15.753 12.849Z" fill="white" fill-opacity="0.6"/>
</svg>
