<svg width="25" height="27" viewBox="0 0 25 27" fill="none" xmlns="http://www.w3.org/2000/svg">
<path d="M23.3691 6.25594L18.9941 1.88094C18.9127 1.79971 18.8162 1.7353 18.71 1.69138C18.6038 1.64747 18.4899 1.62491 18.375 1.625H9.625C9.16087 1.625 8.71575 1.80937 8.38756 2.13756C8.05937 2.46575 7.875 2.91087 7.875 3.375V5.125H6.125C5.66087 5.125 5.21575 5.30937 4.88756 5.63756C4.55937 5.96575 4.375 6.41087 4.375 6.875V22.625C4.375 23.0891 4.55937 23.5342 4.88756 23.8624C5.21575 24.1906 5.66087 24.375 6.125 24.375H18.375C18.8391 24.375 19.2842 24.1906 19.6124 23.8624C19.9406 23.5342 20.125 23.0891 20.125 22.625V20.875H21.875C22.3391 20.875 22.7842 20.6906 23.1124 20.3624C23.4406 20.0342 23.625 19.5891 23.625 19.125V6.875C23.6251 6.76006 23.6025 6.64623 23.5586 6.54001C23.5147 6.43379 23.4503 6.33726 23.3691 6.25594ZM18.375 22.625H6.125V6.875H14.513L18.375 10.737V22.625ZM21.875 19.125H20.125V10.375C20.1251 10.2601 20.1025 10.1462 20.0586 10.04C20.0147 9.93379 19.9503 9.83726 19.8691 9.75594L15.4941 5.38094C15.4127 5.29971 15.3162 5.2353 15.21 5.19138C15.1038 5.14747 14.9899 5.12491 14.875 5.125H9.625V3.375H18.013L21.875 7.23703V19.125ZM15.75 15.625C15.75 15.8571 15.6578 16.0796 15.4937 16.2437C15.3296 16.4078 15.1071 16.5 14.875 16.5H9.625C9.39294 16.5 9.17038 16.4078 9.00628 16.2437C8.84219 16.0796 8.75 15.8571 8.75 15.625C8.75 15.3929 8.84219 15.1704 9.00628 15.0063C9.17038 14.8422 9.39294 14.75 9.625 14.75H14.875C15.1071 14.75 15.3296 14.8422 15.4937 15.0063C15.6578 15.1704 15.75 15.3929 15.75 15.625ZM15.75 19.125C15.75 19.3571 15.6578 19.5796 15.4937 19.7437C15.3296 19.9078 15.1071 20 14.875 20H9.625C9.39294 20 9.17038 19.9078 9.00628 19.7437C8.84219 19.5796 8.75 19.3571 8.75 19.125C8.75 18.8929 8.84219 18.6704 9.00628 18.5063C9.17038 18.3422 9.39294 18.25 9.625 18.25H14.875C15.1071 18.25 15.3296 18.3422 15.4937 18.5063C15.6578 18.6704 15.75 18.8929 15.75 19.125Z" fill="white" fill-opacity="0.6"/>
</svg>
