<svg width="26" height="26" viewBox="0 0 26 26" fill="none" xmlns="http://www.w3.org/2000/svg">
<path d="M17.55 16.9002C17.3776 16.9002 17.2123 16.9687 17.0904 17.0906C16.9685 17.2125 16.9 17.3778 16.9 17.5502C16.9 17.7226 16.9685 17.8879 17.0904 18.0098C17.2123 18.1317 17.3776 18.2002 17.55 18.2002H20.15C20.3224 18.2002 20.4877 18.1317 20.6096 18.0098C20.7315 17.8879 20.8 17.7226 20.8 17.5502C20.8 17.3778 20.7315 17.2125 20.6096 17.0906C20.4877 16.9687 20.3224 16.9002 20.15 16.9002H17.55ZM2.60001 8.7752C2.60001 7.82705 2.97666 6.91773 3.6471 6.24729C4.31754 5.57685 5.22686 5.2002 6.17501 5.2002H19.825C20.7732 5.2002 21.6825 5.57685 22.3529 6.24729C23.0234 6.91773 23.4 7.82705 23.4 8.7752V17.2252C23.4 18.1733 23.0234 19.0827 22.3529 19.7531C21.6825 20.4235 20.7732 20.8002 19.825 20.8002H6.17501C5.22686 20.8002 4.31754 20.4235 3.6471 19.7531C2.97666 19.0827 2.60001 18.1733 2.60001 17.2252V8.7752ZM6.17501 6.5002C5.57164 6.5002 4.99298 6.73988 4.56634 7.16653C4.13969 7.59317 3.90001 8.17183 3.90001 8.7752V10.4002H22.1V8.7752C22.1 8.17183 21.8603 7.59317 21.4337 7.16653C21.007 6.73988 20.4284 6.5002 19.825 6.5002H6.17501ZM22.1 11.7002H3.90001V17.2252C3.90001 18.481 4.91921 19.5002 6.17501 19.5002H19.825C20.4284 19.5002 21.007 19.2605 21.4337 18.8339C21.8603 18.4072 22.1 17.8286 22.1 17.2252V11.7002Z" fill="white" fill-opacity="0.6"/>
</svg>
