<svg width="18" height="18" viewBox="0 0 18 18" fill="none" xmlns="http://www.w3.org/2000/svg">
<path fill-rule="evenodd" clip-rule="evenodd" d="M9.42225 2.4H8.57775L8.094 4.3335L7.60875 4.4835C7.32599 4.57063 7.05203 4.68413 6.7905 4.8225L6.34125 5.06025L4.63125 4.03425L4.03425 4.632L5.06025 6.342L4.8225 6.7905C4.68387 7.05201 4.57012 7.32596 4.48275 7.60875L4.3335 8.094L2.4 8.57775V9.42225L4.3335 9.906L4.4835 10.3912C4.57 10.6753 4.683 10.948 4.8225 11.2095L5.06025 11.6588L4.03425 13.3688L4.632 13.9657L6.342 12.9398L6.7905 13.1775C7.052 13.3165 7.32475 13.4298 7.60875 13.5173L8.094 13.6665L8.57775 15.6H9.42225L9.906 13.6665L10.3912 13.5165C10.674 13.4294 10.948 13.3159 11.2095 13.1775L11.6588 12.9398L13.3688 13.9657L13.9657 13.368L12.9398 11.658L13.1775 11.2095C13.3165 10.948 13.4298 10.6753 13.5173 10.3912L13.6665 9.906L15.6 9.42225V8.57775L13.6665 8.094L13.5165 7.60875C13.4294 7.32599 13.3159 7.05203 13.1775 6.7905L12.9398 6.34125L13.9657 4.63125L13.368 4.03425L11.658 5.06025L11.2095 4.8225C10.948 4.68387 10.674 4.57012 10.3912 4.48275L9.906 4.3335L9.42225 2.4ZM11.631 4.0275L13.0057 3.2025C13.1491 3.11652 13.3171 3.08089 13.483 3.10128C13.6489 3.12166 13.8032 3.19688 13.9215 3.315L14.685 4.0785C14.8031 4.19678 14.8783 4.35112 14.8987 4.51703C14.9191 4.68294 14.8835 4.8509 14.7975 4.99425L13.9725 6.369C14.1375 6.679 14.2725 7.004 14.3775 7.344L15.9323 7.73325C16.0944 7.77388 16.2384 7.86754 16.3413 7.99934C16.4441 8.13115 16.5 8.29355 16.5 8.46075V9.53925C16.5 9.70645 16.4441 9.86885 16.3413 10.0007C16.2384 10.1325 16.0944 10.2261 15.9323 10.2668L14.3775 10.656C14.2725 10.996 14.1375 11.321 13.9725 11.631L14.7975 13.0057C14.8835 13.1491 14.9191 13.3171 14.8987 13.483C14.8783 13.6489 14.8031 13.8032 14.685 13.9215L13.9215 14.685C13.8032 14.8031 13.6489 14.8783 13.483 14.8987C13.3171 14.9191 13.1491 14.8835 13.0057 14.7975L11.631 13.9725C11.321 14.1375 10.996 14.2725 10.656 14.3775L10.2668 15.9323C10.2261 16.0944 10.1325 16.2384 10.0007 16.3413C9.86885 16.4441 9.70645 16.5 9.53925 16.5H8.46075C8.29355 16.5 8.13115 16.4441 7.99934 16.3413C7.86754 16.2384 7.77388 16.0944 7.73325 15.9323L7.344 14.3775C7.00702 14.2734 6.68058 14.1378 6.369 13.9725L4.99425 14.7975C4.8509 14.8835 4.68294 14.9191 4.51703 14.8987C4.35112 14.8783 4.19678 14.8031 4.0785 14.685L3.315 13.9215C3.19688 13.8032 3.12166 13.6489 3.10128 13.483C3.08089 13.3171 3.11652 13.1491 3.2025 13.0057L4.0275 11.631C3.86223 11.3194 3.72663 10.993 3.6225 10.656L2.06775 10.2668C1.90569 10.2262 1.76182 10.1326 1.65897 10.001C1.55612 9.8693 1.50017 9.70707 1.5 9.54V8.4615C1.5 8.2943 1.55588 8.1319 1.65874 8.00009C1.76161 7.86829 1.90557 7.77463 2.06775 7.734L3.6225 7.34475C3.7275 7.00475 3.8625 6.67975 4.0275 6.36975L3.2025 4.995C3.11652 4.85165 3.08089 4.68369 3.10128 4.51778C3.12166 4.35187 3.19688 4.19753 3.315 4.07925L4.0785 3.315C4.19678 3.19688 4.35112 3.12166 4.51703 3.10128C4.68294 3.08089 4.8509 3.11652 4.99425 3.2025L6.369 4.0275C6.679 3.8625 7.004 3.7275 7.344 3.6225L7.73325 2.06775C7.77385 1.90569 7.86739 1.76182 7.99905 1.65897C8.1307 1.55612 8.29293 1.50017 8.46 1.5H9.5385C9.7057 1.5 9.8681 1.55588 9.99991 1.65874C10.1317 1.76161 10.2254 1.90557 10.266 2.06775L10.6552 3.6225C10.9952 3.7275 11.3202 3.8625 11.6302 4.0275H11.631ZM9 11.1C9.55695 11.1 10.0911 10.8788 10.4849 10.4849C10.8788 10.0911 11.1 9.55695 11.1 9C11.1 8.44305 10.8788 7.9089 10.4849 7.51508C10.0911 7.12125 9.55695 6.9 9 6.9C8.44305 6.9 7.9089 7.12125 7.51508 7.51508C7.12125 7.9089 6.9 8.44305 6.9 9C6.9 9.55695 7.12125 10.0911 7.51508 10.4849C7.9089 10.8788 8.44305 11.1 9 11.1ZM9 12C8.20435 12 7.44129 11.6839 6.87868 11.1213C6.31607 10.5587 6 9.79565 6 9C6 8.20435 6.31607 7.44129 6.87868 6.87868C7.44129 6.31607 8.20435 6 9 6C9.79565 6 10.5587 6.31607 11.1213 6.87868C11.6839 7.44129 12 8.20435 12 9C12 9.79565 11.6839 10.5587 11.1213 11.1213C10.5587 11.6839 9.79565 12 9 12Z" fill="#1B70BB"/>
</svg>
