<svg width="24" height="24" viewBox="0 0 24 24" fill="none" xmlns="http://www.w3.org/2000/svg">
<path d="M20 20H2" stroke="white" stroke-opacity="0.5" stroke-width="1.3" stroke-linecap="round"/>
<path d="M19.1 20V13.25C19.1 12.892 18.9578 12.5486 18.7046 12.2954C18.4514 12.0422 18.1081 11.9 17.75 11.9H15.05C14.692 11.9 14.3486 12.0422 14.0954 12.2954C13.8423 12.5486 13.7 12.892 13.7 13.25V20V4.7C13.7 3.4274 13.7 2.7911 13.304 2.396C12.9098 2 12.2735 2 11 2C9.72652 2 9.09112 2 8.69602 2.396C8.30002 2.7902 8.30002 3.4265 8.30002 4.7V20V8.75C8.30002 8.39196 8.15779 8.04858 7.90462 7.79541C7.65144 7.54223 7.30807 7.4 6.95002 7.4H4.25002C3.89198 7.4 3.5486 7.54223 3.29543 7.79541C3.04226 8.04858 2.90002 8.39196 2.90002 8.75V20" stroke="white" stroke-opacity="0.5" stroke-width="1.2"/>
</svg>
