<svg width="31" height="31" viewBox="0 0 31 31" fill="none" xmlns="http://www.w3.org/2000/svg">
<path d="M9.59523 15.5003H16.9762M9.59523 18.4527H19.9286M9.59523 21.4051H14.0238M24.3571 22.8813V12.5479L16.9762 5.16699H9.59523C8.81221 5.16699 8.06126 5.47805 7.50759 6.03172C6.95391 6.5854 6.64285 7.33635 6.64285 8.11937V22.8813C6.64285 23.6643 6.95391 24.4152 7.50759 24.9689C8.06126 25.5226 8.81221 25.8337 9.59523 25.8337H21.4048C22.1878 25.8337 22.9387 25.5226 23.4924 24.9689C24.0461 24.4152 24.3571 23.6643 24.3571 22.8813Z" stroke="white" stroke-opacity="0.6" stroke-width="1.2" stroke-linecap="round" stroke-linejoin="round"/>
<path d="M16.9762 5.16699V9.59556C16.9762 10.3786 17.2872 11.1295 17.8409 11.6832C18.3946 12.2369 19.1455 12.5479 19.9286 12.5479H24.3571" stroke="#FDFDFD" stroke-opacity="0.6" stroke-linecap="round" stroke-linejoin="round"/>
</svg>
