<svg width="21" height="23" viewBox="0 0 21 23" fill="none" xmlns="http://www.w3.org/2000/svg">
<path d="M6.25512 22.375H14.7449C15.5063 22.375 16.257 22.1951 16.9357 21.8499C17.6144 21.5047 18.202 21.0041 18.6505 20.3888C19.099 19.7734 19.3958 19.0609 19.5167 18.3091C19.6376 17.5573 19.5792 16.7876 19.3462 16.0627L17.2848 9.65125C16.8934 8.43349 16.1256 7.37138 15.0919 6.61788C14.0583 5.86438 12.8122 5.45837 11.5331 5.45833H9.46687C8.18775 5.45837 6.94165 5.86438 5.90803 6.61788C4.87441 7.37138 4.10661 8.43349 3.7152 9.65125L1.65378 16.0627C1.42078 16.7876 1.36235 17.5573 1.48325 18.3091C1.60415 19.0609 1.90095 19.7734 2.34948 20.3888C2.79802 21.0041 3.38558 21.5047 4.06429 21.8499C4.74301 22.1951 5.49367 22.375 6.25512 22.375ZM14.125 0.625C13.3194 3.84722 12.1111 5.45833 10.5 5.45833C8.88888 5.45833 7.68055 3.84722 6.87499 0.625H14.125Z" stroke="white" stroke-opacity="0.5" stroke-width="1.2" stroke-linecap="round" stroke-linejoin="round"/>
<path d="M12.9166 10.2913H9.89581C9.41511 10.2913 8.95409 10.4823 8.61418 10.8222C8.27427 11.1621 8.08331 11.6231 8.08331 12.1038C8.08331 12.5845 8.27427 13.0456 8.61418 13.3855C8.95409 13.7254 9.41511 13.9163 9.89581 13.9163H11.1041C11.5849 13.9163 12.0459 14.1073 12.3858 14.4472C12.7257 14.7871 12.9166 15.2481 12.9166 15.7288C12.9166 16.2095 12.7257 16.6706 12.3858 17.0105C12.0459 17.3504 11.5849 17.5413 11.1041 17.5413H8.08331M10.5 9.08301V10.2913M10.5 17.5413V18.7497" stroke="white" stroke-opacity="0.5" stroke-width="1.2" stroke-linecap="round" stroke-linejoin="round"/>
</svg>
